<svg width="30" height="31" viewBox="0 0 30 31" fill="none" xmlns="http://www.w3.org/2000/svg">
<g clip-path="url(#clip0_1067_301)">
<path d="M30 15.6903C30 14.4318 29.8979 13.5134 29.6769 12.561H15.3062V18.2412H23.7415C23.5715 19.6529 22.6531 21.7787 20.6122 23.2072L20.5836 23.3974L25.1274 26.9174L25.4422 26.9488C28.3333 24.2787 30 20.3501 30 15.6903Z" fill="#4285F4"/>
<path d="M15.3061 30.6563C19.4387 30.6563 22.9081 29.2957 25.4422 26.9489L20.6122 23.2073C19.3197 24.1087 17.585 24.7379 15.3061 24.7379C11.2585 24.7379 7.8232 22.0679 6.59859 18.3774L6.41909 18.3927L1.69442 22.0492L1.63263 22.2209C4.14961 27.2209 9.31969 30.6563 15.3061 30.6563Z" fill="#34A853"/>
<path d="M6.59857 18.3773C6.27545 17.4249 6.08845 16.4044 6.08845 15.35C6.08845 14.2956 6.27545 13.2752 6.58157 12.3228L6.57301 12.12L1.78913 8.40479L1.63261 8.47923C0.595245 10.5541 0 12.8841 0 15.35C0 17.816 0.595245 20.1459 1.63261 22.2207L6.59857 18.3773Z" fill="#FBBC05"/>
<path d="M15.3061 5.96227C18.1802 5.96227 20.119 7.20376 21.2245 8.24125L25.5442 4.02354C22.8912 1.55756 19.4387 0.0439453 15.3061 0.0439453C9.31969 0.0439453 4.14961 3.47929 1.63263 8.47925L6.58159 12.3228C7.8232 8.63237 11.2585 5.96227 15.3061 5.96227Z" fill="#EB4335"/>
</g>
<defs>
<clipPath id="clip0_1067_301">
<rect width="30" height="30.7" fill="white"/>
</clipPath>
</defs>
</svg>
