<svg width="198" height="24" viewBox="0 0 198 24" fill="none" xmlns="http://www.w3.org/2000/svg">
<path d="M6.744 19.768C9.21867 19.768 10.456 18.8507 10.456 17.016C10.456 16.2693 10.264 15.6827 9.88 15.256C9.51733 14.8293 8.83467 14.456 7.832 14.136L5.208 13.272C2.072 12.248 0.504 10.1893 0.504 7.096C0.504 5.304 1.05867 3.832 2.168 2.68C3.29867 1.50666 5.05867 0.919998 7.448 0.919998C8.45067 0.919998 9.44267 1.03733 10.424 1.272C11.4053 1.48533 12.4507 1.83733 13.56 2.328L12.376 5.624C11.352 5.21867 10.4773 4.93067 9.752 4.76C9.048 4.568 8.32267 4.472 7.576 4.472C6.59467 4.472 5.816 4.65333 5.24 5.016C4.68533 5.35733 4.408 5.98667 4.408 6.904C4.408 7.58667 4.6 8.152 4.984 8.6C5.38933 9.02667 6.05067 9.38933 6.968 9.688L9.592 10.552C11.1707 11.0853 12.3547 11.864 13.144 12.888C13.9547 13.8907 14.36 15.224 14.36 16.888C14.36 18.808 13.752 20.3653 12.536 21.56C11.32 22.7333 9.41067 23.32 6.808 23.32C5.784 23.32 4.71733 23.2027 3.608 22.968C2.52 22.712 1.32533 22.2853 0.024 21.688L1.208 18.392C2.40267 18.904 3.416 19.2667 4.248 19.48C5.10133 19.672 5.93333 19.768 6.744 19.768ZM22.7625 1.24L28.8425 16.12L34.8905 1.24H39.0825V23H35.4025V14.68L35.8825 7.064L30.4745 20.44H27.0505L21.7705 7.032L22.2505 14.68V23H18.5705V1.24H22.7625ZM56.6858 23L55.3418 18.744H47.8858L46.5418 23H42.7338L49.9978 1.24H53.3898L60.6858 23H56.6858ZM49.9658 12.088L48.9738 15.224H54.2218L53.2298 12.088L51.6298 6.584L49.9658 12.088ZM68.1605 15V23H64.3205V1.24H71.5845C73.7818 1.24 75.4672 1.80533 76.6405 2.936C77.8352 4.04533 78.4325 5.53867 78.4325 7.416V8.792C78.4325 10.0293 78.1658 11.1173 77.6325 12.056C77.0992 12.9947 76.3312 13.7093 75.3285 14.2C77.0778 17.1867 78.5712 20.12 79.8085 23H75.4245C74.3578 20.3333 73.0885 17.6667 71.6165 15H68.1605ZM71.5845 4.76H68.1605V11.48H71.5845C72.5232 11.48 73.2378 11.2453 73.7285 10.776C74.2405 10.2853 74.4965 9.624 74.4965 8.792V7.416C74.4965 6.60533 74.2405 5.96533 73.7285 5.496C73.2378 5.00533 72.5232 4.76 71.5845 4.76ZM81.2285 4.92V1.24H97.2285V4.92H91.1485V23H87.3085V4.92H81.2285Z" fill="black"/>
<path d="M104.479 4.92V1.24H120.479V4.92H114.399V23H110.559V4.92H104.479ZM123.402 1.24H127.338V15.192C127.338 16.6 127.648 17.7093 128.266 18.52C128.885 19.3093 129.877 19.704 131.242 19.704C132.608 19.704 133.6 19.3093 134.218 18.52C134.837 17.7093 135.146 16.6 135.146 15.192V1.24H139.082V15.192C139.082 17.6453 138.432 19.6187 137.13 21.112C135.829 22.584 133.866 23.32 131.242 23.32C128.597 23.32 126.624 22.584 125.322 21.112C124.042 19.6187 123.402 17.6453 123.402 15.192V1.24ZM142.01 4.92V1.24H158.01V4.92H151.93V23H148.09V4.92H142.01ZM176.838 9.816V14.392C176.838 17.1653 176.144 19.352 174.758 20.952C173.371 22.5307 171.344 23.32 168.678 23.32C165.99 23.32 163.952 22.5307 162.566 20.952C161.2 19.352 160.518 17.1653 160.518 14.392V9.816C160.518 7.04267 161.2 4.86666 162.566 3.288C163.952 1.70933 165.99 0.919998 168.678 0.919998C171.344 0.919998 173.371 1.70933 174.758 3.288C176.144 4.86666 176.838 7.04267 176.838 9.816ZM172.902 9.816C172.902 8.06667 172.56 6.75467 171.878 5.88C171.195 4.984 170.128 4.536 168.678 4.536C167.227 4.536 166.16 4.984 165.478 5.88C164.795 6.75467 164.454 8.06667 164.454 9.816V14.392C164.454 16.1413 164.795 17.464 165.478 18.36C166.16 19.256 167.227 19.704 168.678 19.704C170.128 19.704 171.195 19.256 171.878 18.36C172.56 17.464 172.902 16.1413 172.902 14.392V9.816ZM185.754 15V23H181.914V1.24H189.178C191.376 1.24 193.061 1.80533 194.234 2.936C195.429 4.04533 196.026 5.53867 196.026 7.416V8.792C196.026 10.0293 195.76 11.1173 195.226 12.056C194.693 12.9947 193.925 13.7093 192.922 14.2C194.672 17.1867 196.165 20.12 197.402 23H193.018C191.952 20.3333 190.682 17.6667 189.21 15H185.754ZM189.178 4.76H185.754V11.48H189.178C190.117 11.48 190.832 11.2453 191.322 10.776C191.834 10.2853 192.09 9.624 192.09 8.792V7.416C192.09 6.60533 191.834 5.96533 191.322 5.496C190.832 5.00533 190.117 4.76 189.178 4.76Z" fill="#DF9703"/>
</svg>
